Coordinates
version=1
nRows=10
nColumns=22
inDegrees=yes

Units are S.I. units (second, meters, Newtons, ...)
If the header above contains a line with 'inDegrees', this indicates whether rotational values are in degrees (yes) or radians (no).

endheader
time	pelvis_tilt	pelvis_list	pelvis_rotation	pelvis_tx	pelvis_ty	pelvis_tz	hip_flexion_r	hip_adduction_r	hip_rotation_r	knee_angle_r	ankle_angle_r	subtalar_angle_r	hip_flexion_l	hip_adduction_l	hip_rotation_l	knee_angle_l	ankle_angle_l	subtalar_angle_l	lumbar_extension	lumbar_bending	lumbar_rotation
      0.01000000	     -1.73635685	     -4.09444580	     -3.95505528	     -1.91075313	      1.01475402	     -0.06003837	      2.40265918	      2.44142436	     -1.57172146	    -12.16851058	      8.35152522	      0.82240203	     -0.37223794	     -6.82869047	    -13.29857506	     -9.66645845	     10.87301595	     -0.91126174	     -2.78261825	      0.03938136	     -0.81100884
      0.02000000	     -1.73571438	     -4.09859377	     -3.97068934	     -1.91080193	      1.01475539	     -0.06002471	      2.40293077	      2.44528140	     -1.57524679	    -12.16318718	      8.35143827	      0.82442798	     -0.37154636	     -6.83307986	    -13.29726344	     -9.67019629	     10.87294096	     -0.91056649	     -2.78386060	      0.02685446	     -0.81484849
      0.03000000	     -1.73416323	     -4.10286466	     -3.98756974	     -1.91084299	      1.01475993	     -0.06001872	      2.40264091	      2.44895651	     -1.57813070	    -12.15871800	      8.35049267	      0.82658453	     -0.37128865	     -6.83689558	    -13.29693927	     -9.67676974	     10.87303636	     -0.91001867	     -2.78307584	      0.01281322	     -0.81798856
      0.04000000	     -1.73191498	     -4.10705561	     -4.00502160	     -1.91087955	      1.01476796	     -0.06001997	      2.40254074	      2.45199874	     -1.57920768	    -12.15590178	      8.34860492	      0.82891432	     -0.37134683	     -6.84028034	    -13.29800898	     -9.68519843	     10.87335861	     -0.90959776	     -2.78157240	     -0.00167807	     -0.82098585
      0.05000000	     -1.73446341	     -4.10073171	     -4.05704895	     -1.91093647	      1.01477224	     -0.05997319	      2.41593542	      2.44642657	     -1.51618921	    -12.16326303	      8.33031742	      0.86869096	     -0.35787431	     -6.83761811	    -13.38775950	     -9.71948609	     10.89025964	     -0.89739723	     -2.77446439	     -0.03009773	     -0.78287191
      0.06000000	     -1.73211458	     -4.10635485	     -4.07440873	     -1.91096989	      1.01478315	     -0.05998824	      2.41726456	      2.44998330	     -1.51638871	    -12.16361002	      8.33029080	      0.86961256	     -0.36012434	     -6.84093090	    -13.38522392	     -9.72433189	     10.88960478	     -0.89700177	     -2.77301887	     -0.04046387	     -0.78885300
      0.07000000	     -1.72555055	     -4.11056120	     -4.10016299	     -1.91101964	      1.01480082	     -0.06000339	      2.42473731	      2.45181188	     -1.48653235	    -12.18376631	      8.32434853	      0.87555597	     -0.36388818	     -6.84250286	    -13.39682331	     -9.73733191	     10.88869980	     -0.89505477	     -2.77737327	     -0.04720549	     -0.80001442
      0.08000000	     -1.72363116	     -4.11579413	     -4.11606389	     -1.91105094	      1.01481016	     -0.06001089	      2.42578179	      2.45581981	     -1.48560851	    -12.18310105	      8.32397038	      0.87660408	     -0.36653599	     -6.84619047	    -13.39791710	     -9.74022944	     10.88897768	     -0.89499836	     -2.77480848	     -0.05891114	     -0.80478499
      0.09000000	     -1.72084524	     -4.11745827	     -4.17346923	     -1.91108797	      1.01482279	     -0.05996108	      2.43380552	      2.45936237	     -1.40146970	    -12.19614176	      8.31568316	      0.89675492	     -0.37630008	     -6.84797211	    -13.48090925	     -9.74662402	     10.89676938	     -0.89247156	     -2.77169506	     -0.07070248	     -0.77321360
      0.10000000	     -1.71863285	     -4.12188764	     -4.18873724	     -1.91111827	      1.01483030	     -0.05997618	      2.43503631	      2.46138713	     -1.40191625	    -12.19652038	      8.31547168	      0.89735860	     -0.37999424	     -6.85020312	    -13.48037431	     -9.74849450	     10.89693893	     -0.89237211	     -2.76877434	     -0.07757428	     -0.78102176
